<svg width="50" height="70" viewBox="0 0 50 70" fill="none" xmlns="http://www.w3.org/2000/svg">
<g clip-path="url(#clip0_6_48)">
<path fill-rule="evenodd" clip-rule="evenodd" d="M23.8332 12.7688C25.738 12.7688 26.4307 10.5205 27.513 9.28663C28.2872 8.40386 29.6087 8.66708 29.9999 7.43122C30.9835 4.3235 28.3509 2.13623 24.9165 2.13623C21.4822 2.13623 19.1665 4.05454 18.6665 6.93826C18.1665 9.82198 20.3989 12.7688 23.8332 12.7688Z" fill="#191847"/>
<path fill-rule="evenodd" clip-rule="evenodd" d="M25.989 12.3642C27.0683 13.0056 28.1288 13.3154 28.6265 13.1889C29.8748 12.8717 29.9895 8.36971 29.0237 6.59487C28.058 4.82004 23.0928 4.04646 22.8427 7.56297C22.7558 8.78344 23.2755 9.87263 24.0435 10.7614L22.6665 17.0893H26.6665L25.989 12.3642Z" fill="#B28B67"/>
<path fill-rule="evenodd" clip-rule="evenodd" d="M23.1026 5.09396C20.0387 8.0517 23.1142 11.1954 23.9569 11.1954C24.0114 10.7687 24.1772 10.3536 24.4204 9.95845C24.2912 9.79357 24.2147 9.5885 24.2147 9.36626C24.2147 8.82175 24.6741 8.38034 25.2409 8.38034C25.4179 8.38034 25.5844 8.42339 25.7297 8.49921C26.9581 7.46638 28.4986 6.74637 29.2636 6.60479C30.5941 6.35856 26.1664 2.13621 23.1026 5.09396Z" fill="#191847"/>
<path fill-rule="evenodd" clip-rule="evenodd" d="M21.3333 30.7278L27.6051 50.943L30.6433 68.1347H33.0254L29.8151 30.7278H21.3333Z" fill="#997659"/>
<path fill-rule="evenodd" clip-rule="evenodd" d="M19.0894 30.7278C19.5154 41.8271 19.0141 47.5523 18.9187 48.5607C18.8234 49.5691 17.5177 56.1077 14.427 68.4732L16.9654 67.6138C21.8501 56.2727 23.5146 50.3786 24.0747 48.8893C24.6351 47.4001 26.1229 41.3463 28.5386 30.7278H19.0894Z" fill="#B28B67"/>
<path fill-rule="evenodd" clip-rule="evenodd" d="M14.9081 67.4178C14.7295 67.3404 14.5172 67.4187 14.4507 67.5997C14.3293 67.9294 14.1665 68.4242 14.1665 68.7031C14.1665 69.1475 14.3167 70.0002 14.3167 70.0002C14.8397 70.0002 23.717 70.0002 23.717 70.0002C23.717 70.0002 24.0835 68.8059 23.294 68.7106C22.5045 68.6155 21.9823 68.5387 21.9823 68.5387L17.6132 66.6183C17.5273 66.5805 17.427 66.6201 17.3912 66.7058L17.1103 67.3775C17.1103 67.3775 16.3795 67.7137 15.9226 67.7137C15.6445 67.7137 15.2075 67.5476 14.9081 67.4178Z" fill="#E4E4E4"/>
<path fill-rule="evenodd" clip-rule="evenodd" d="M30.5749 67.4178C30.3963 67.3404 30.1839 67.4187 30.1174 67.5997C29.9961 67.9294 29.8333 68.4242 29.8333 68.7031C29.8333 69.1475 29.9834 70.0002 29.9834 70.0002C30.5064 70.0002 39.3838 70.0002 39.3838 70.0002C39.3838 70.0002 39.7503 68.8059 38.9608 68.7106C38.1713 68.6155 37.6491 68.5387 37.6491 68.5387L33.2799 66.6183C33.1941 66.5805 33.0938 66.6201 33.0579 66.7058L32.7771 67.3775C32.7771 67.3775 32.0463 67.7137 31.5894 67.7137C31.3113 67.7137 30.8743 67.5476 30.5749 67.4178Z" fill="#E4E4E4"/>
<path fill-rule="evenodd" clip-rule="evenodd" d="M20.4998 30.7278L23.1664 41.0273H31.3114L30.0971 30.7278H20.4998Z" fill="#69A1AC"/>
<path fill-rule="evenodd" clip-rule="evenodd" d="M18.9999 30.7278C17.6837 34.6174 18.4999 41.0273 18.4999 41.0273H26.8116L29.0972 30.7278H18.9999Z" fill="#89C5CC"/>
<path fill-rule="evenodd" clip-rule="evenodd" d="M40.7286 32.66L36.0072 28.1189L34.4392 30.794L39.3487 33.6479C40.5797 35.5598 41.3027 36.3858 41.5177 36.1262C41.6991 35.9071 41.6159 35.6671 41.5394 35.4461C41.4797 35.2738 41.4241 35.1131 41.5006 34.9828C41.6751 34.6851 42.6607 34.8555 43.5891 35.0568C44.5174 35.2579 44.3027 34.8083 44.1054 34.5737C43.2279 33.8755 42.1024 33.2376 40.7286 32.66ZM12.8995 39.2574C13.388 38.2806 15.0512 28.7594 15.0512 28.7594L18.5341 28.7729C18.5341 28.7729 15.3083 39.0397 15.0512 39.6679C14.7172 40.4839 15.2846 41.6695 15.6692 42.4735C15.7288 42.5979 15.7839 42.7131 15.8307 42.8164C15.2969 43.0519 15.0405 42.7673 14.7701 42.4673C14.4648 42.1283 14.1417 41.7697 13.3812 42.1184C13.0874 42.2533 12.8093 42.4125 12.5377 42.5683C11.5994 43.106 10.7374 43.6001 9.56472 42.8866C9.37882 42.7735 9.17511 42.3478 9.66732 42.015C10.8936 41.1861 12.6608 39.7351 12.8995 39.2574Z" fill="#B28B67"/>
<path fill-rule="evenodd" clip-rule="evenodd" d="M24.9491 14.3507L26.3903 14.1069C28.8716 20.218 33.2036 25.7707 39.3863 30.765L34.7143 36.361C28.5323 29.25 24.7216 21.9131 24.9491 14.3507Z" fill="#191847"/>
<path fill-rule="evenodd" clip-rule="evenodd" d="M18.6665 32.2068H31.4998C31.4998 32.2068 27.04 21.5158 27.04 14.043L23.1688 13.4744C20.1265 18.2984 19.2673 24.2381 18.6665 32.2068Z" fill="#DDE3E9"/>
<path fill-rule="evenodd" clip-rule="evenodd" d="M12.8333 37.6293C14.2367 22.0183 23.0839 13.4744 23.0839 13.4744L23.0869 13.4771C23.0874 13.4762 23.0881 13.4753 23.0886 13.4744H23.3413C23.7948 13.4898 24.7229 13.5299 24.7229 13.5299L25.6583 16.1654C25.8068 20.9854 27.3918 35.5927 27.3918 35.5927H18.9916C19.0059 36.2625 19.0374 36.9416 19.0884 37.6293H12.8333Z" fill="#2F3676"/>
<path fill-rule="evenodd" clip-rule="evenodd" d="M18.9928 35.6574C18.9258 32.7407 19.1883 30.0022 19.6261 27.5239C19.8551 30.4647 20.3336 34.0032 21.3331 35.6574H18.9928Z" fill="black" fill-opacity="0.1"/>
<path fill-rule="evenodd" clip-rule="evenodd" d="M20.8518 30.5634L25 28.6621V30.5634H20.8518Z" fill="white" fill-opacity="0.2"/>
</g>
<defs>
<clipPath id="clip0_6_48">
<rect width="50" height="70" fill="white"/>
</clipPath>
</defs>
</svg>
