<svg width="69" height="86" viewBox="0 0 69 86" fill="none" xmlns="http://www.w3.org/2000/svg">
<path fill-rule="evenodd" clip-rule="evenodd" d="M35.5778 18.3187C36.7537 19.0179 37.9091 19.3558 38.4513 19.2179C39.8113 18.8721 39.9362 13.9633 38.884 12.0281C37.8319 10.0929 32.4225 9.24941 32.1499 13.0837C32.0553 14.4144 32.6215 15.602 33.4582 16.5711L31.958 23.4708H36.3159L35.5778 18.3187Z" fill="#B28B67"/>
<path fill-rule="evenodd" clip-rule="evenodd" d="M35.7956 13.5071C36.1726 12.9533 36.5344 12.5309 37.0053 12.2856C38.9211 12.3155 39.1454 11.9766 39.1454 10.8344C38.8359 10.6159 37.7441 10.248 36.5214 10.1445C35.8976 9.96836 35.1586 10.0015 34.4468 10.2953C33.5682 10.5413 32.8242 11.0711 32.4956 12.063C31.3064 14.0877 32.2089 16.1953 33.4251 16.9153C33.7488 16.5369 34.0314 16.1701 34.2836 15.819C34.0809 15.6238 33.9553 15.3514 33.9553 15.05C33.9553 14.4563 34.443 13.975 35.0448 13.975C35.0891 13.975 35.1326 13.9776 35.1755 13.9826C35.2026 14.7249 35.314 17.2363 35.6066 18.1085C35.9518 19.1371 37.9653 19.3896 38.6674 19.3896C39.2741 19.3896 39.2534 18.8229 39.2385 18.4167C39.2365 18.3581 39.2343 18.3029 39.2343 18.2533C39.2343 18.1496 39.0976 18.1499 38.9431 18.1501C38.7424 18.1506 38.5118 18.151 38.5118 17.9238C38.5118 17.6762 38.8586 17.4862 39.169 17.3163C39.3625 17.2102 39.5421 17.1119 39.6142 17.0123C39.8419 16.6979 39.9185 16.2739 39.5752 16.2739C39.3874 16.2739 39.1299 16.3806 38.82 16.5091C38.3522 16.703 37.7654 16.9464 37.1195 16.9464C36.0525 16.9464 35.7989 13.5496 35.7956 13.5071Z" fill="#191847"/>
<path fill-rule="evenodd" clip-rule="evenodd" d="M30.5054 38.3416L37.0885 61.1364L41.8916 77.9374H45.3948L40.2908 38.3416H30.5054Z" fill="#191847"/>
<path fill-rule="evenodd" clip-rule="evenodd" d="M28.7447 38.3416C28.5925 50.0902 28.0732 56.4983 27.9134 57.5658C27.7534 58.6333 25.3361 65.4237 20.6611 77.9374H24.2903C30.2418 65.9327 33.5641 59.1421 34.2572 57.5658C34.9501 55.9895 37.0891 49.5814 40.3105 38.3416H28.7447Z" fill="#2F3676"/>
<path fill-rule="evenodd" clip-rule="evenodd" d="M20.3369 81.1624L20.5185 77.3999H24.3317C27.0437 79.2812 31.4132 80.4457 31.4132 80.4457V81.1624H24.5132L22.1527 80.8041V81.1624H20.3369Z" fill="#191847"/>
<path fill-rule="evenodd" clip-rule="evenodd" d="M41.4001 81.1624L41.5817 77.3999H45.3949C48.1069 79.2812 52.4765 80.4457 52.4765 80.4457V81.1624H45.5765L43.2159 80.8041V81.1624H41.4001Z" fill="#191847"/>
<path fill-rule="evenodd" clip-rule="evenodd" d="M16.4083 44.8424C17.0855 43.8606 21.0027 33.4209 21.0027 33.4209L24.2189 33.8817C24.2189 33.8817 19.0406 44.9675 18.6665 45.6075C18.1808 46.4386 18.6104 47.8037 18.9019 48.7293C18.9469 48.8724 18.9887 49.0052 19.0234 49.1236C18.4112 49.2981 18.1783 48.9523 17.9328 48.5879C17.6555 48.1763 17.3621 47.7408 16.488 48.0036C16.1502 48.1052 15.8257 48.2357 15.5087 48.363C14.4137 48.8033 13.4078 49.2076 12.2523 48.262C12.0692 48.112 11.9149 47.6218 12.4971 47.3362C13.9476 46.6246 16.0773 45.3224 16.4083 44.8424ZM51.3043 39.9902L45.8231 35.405L44.3251 38.4324L49.8809 41.1682C51.366 43.1554 52.2154 43.9998 52.4292 43.7011C52.6093 43.4494 52.5005 43.1946 52.4003 42.9597C52.3222 42.777 52.2494 42.6062 52.3224 42.4588C52.4891 42.1219 53.5735 42.2334 54.5979 42.3826C55.6224 42.5319 55.3542 42.0589 55.1218 41.8184C54.1144 41.1251 52.8419 40.5155 51.3043 39.9902Z" fill="#B28B67"/>
<path fill-rule="evenodd" clip-rule="evenodd" d="M34.4448 20.4844L36.4376 19.8342C39.1408 26.4974 43.1725 32.9444 49.9084 38.39L48.2428 41.2257C42.3227 37.7848 36.7189 35.1118 34.4448 29.9485C33.6816 28.2156 34.3825 22.5565 34.4448 20.4844Z" fill="#C5CFD6"/>
<path fill-rule="evenodd" clip-rule="evenodd" d="M27.6001 39.2374C27.6001 39.2374 36.1628 40.1333 41.0798 39.2374C41.486 39.1634 41.5501 38.4925 41.3616 38.0372C38.4287 30.9463 36.4176 24.7593 36.4176 19.8342C35.6105 20.2357 33.5922 19.9544 33.5922 19.9544C29.9762 25.0301 28.3142 30.8535 27.6001 39.2374Z" fill="#323337"/>
<path fill-rule="evenodd" clip-rule="evenodd" d="M32.5559 19.529C32.6492 19.467 32.6986 19.436 32.6986 19.436L32.6931 19.529H34.2003C34.276 19.9685 34.3867 21.5971 34.5485 23.972C35.1363 32.6019 36.395 51.0851 39.0742 58.1584H20.5884C20.9784 50.1167 23.9834 40.4999 27.096 32.3341C24.7992 34.5891 22.1165 38.3689 19.9487 44.6613L16.4861 43.7843C20.0148 28.7808 30.3531 21.0433 32.3592 19.6623C32.3788 19.6177 32.3983 19.5733 32.4177 19.529H32.5559Z" fill="#DDE3E9"/>
</svg>
